<?xml version="1.0" standalone="no"?>
<!DOCTYPE svg PUBLIC "-//W3C//DTD SVG 20010904//EN"
 "http://www.w3.org/TR/2001/REC-SVG-20010904/DTD/svg10.dtd">
<svg version="1.0" xmlns="http://www.w3.org/2000/svg"
 width="1200.000000pt" height="1343.000000pt" viewBox="0 0 1200.000000 1343.000000"
 preserveAspectRatio="xMidYMid meet">

<g transform="translate(0.000000,1343.000000) scale(0.100000,-0.100000)"
fill="#000000" stroke="none">
<path d="M5626 13090 l7 -340 -49 0 c-82 0 -452 -38 -578 -60 -88 -15 -122
-17 -127 -9 -4 6 -55 146 -114 311 -64 175 -113 297 -119 295 -6 -2 -200 -62
-432 -132 l-421 -128 104 -313 c56 -173 103 -317 103 -321 0 -5 -27 -19 -60
-31 -64 -25 -408 -195 -532 -263 -43 -24 -79 -41 -81 -38 -2 2 -93 120 -202
262 -109 142 -201 259 -204 261 -3 3 -164 -106 -356 -240 -193 -135 -356 -249
-364 -253 -11 -7 30 -70 186 -284 l200 -275 -121 -105 c-66 -58 -193 -178
-280 -266 -88 -89 -161 -161 -164 -161 -2 0 -125 83 -273 185 -147 102 -272
186 -278 187 -16 5 -534 -683 -523 -694 5 -5 128 -97 273 -203 155 -113 264
-199 263 -208 -1 -8 -32 -64 -70 -123 -76 -122 -254 -444 -281 -510 -10 -24
-22 -44 -27 -44 -4 0 -145 47 -312 105 -167 58 -307 105 -312 105 -6 0 -13 -8
-17 -17 -18 -45 -275 -786 -277 -799 -2 -12 72 -42 307 -125 170 -60 310 -111
312 -113 2 -2 -10 -59 -27 -127 -35 -147 -74 -372 -90 -519 -6 -58 -13 -114
-15 -126 -5 -21 -6 -21 -333 -16 l-329 5 -6 -114 c-4 -63 -7 -261 -7 -441 l0
-327 33 -5 c17 -3 166 -7 330 -10 164 -2 301 -7 305 -10 3 -3 11 -66 19 -139
18 -185 48 -382 77 -522 14 -66 22 -122 18 -126 -4 -4 -148 -53 -319 -110
-182 -60 -313 -109 -313 -116 0 -13 259 -835 265 -841 2 -2 148 44 325 103
177 59 323 105 325 103 3 -2 43 -91 90 -197 99 -223 159 -344 216 -438 23 -38
43 -71 46 -75 2 -4 -120 -100 -272 -214 l-275 -206 31 -42 c16 -22 136 -186
266 -363 l236 -322 120 92 c65 51 188 145 272 209 l154 118 114 -128 c63 -70
132 -144 153 -164 l39 -37 271 564 271 564 -74 93 c-314 392 -565 898 -714
1437 -153 556 -202 1192 -133 1720 148 1137 832 2196 1850 2864 583 383 1213
611 1912 694 206 24 661 24 862 -1 298 -36 550 -92 817 -181 1412 -470 2473
-1673 2762 -3130 77 -387 95 -742 60 -1185 -61 -788 -337 -1520 -819 -2172
-39 -54 -70 -104 -68 -111 2 -8 129 -256 283 -551 l279 -537 91 93 c50 51 116
122 148 156 l58 64 270 -202 c148 -112 271 -201 273 -199 2 2 93 132 201 289
109 157 223 320 253 364 53 76 55 79 36 93 -10 8 -135 98 -277 200 l-258 185
24 41 c68 118 118 218 213 425 57 125 107 226 111 226 5 -1 149 -47 322 -103
173 -56 316 -99 318 -97 5 4 263 827 263 837 0 4 -146 55 -326 113 -276 91
-324 110 -320 124 28 88 65 328 103 667 l8 70 328 3 327 2 -2 443 -3 442 -332
3 c-256 2 -333 5 -333 15 -1 86 -58 457 -97 620 -14 60 -23 110 -21 112 1 1
144 49 316 105 171 56 312 105 312 110 0 10 -267 830 -272 835 -2 2 -149 -43
-327 -101 -178 -57 -325 -103 -326 -102 0 2 -28 62 -60 133 -80 179 -178 374
-232 463 -44 72 -45 76 -27 89 10 8 135 98 276 201 l258 186 -24 30 c-12 17
-130 178 -260 359 -131 180 -240 327 -244 327 -4 -1 -128 -90 -277 -199 -256
-189 -271 -198 -289 -183 -10 10 -87 91 -171 182 -84 91 -193 200 -244 244
-50 43 -91 82 -91 85 0 4 88 131 195 281 153 217 192 277 182 287 -18 17 -701
513 -707 512 -3 0 -93 -122 -200 -271 -107 -149 -200 -272 -207 -275 -7 -3
-99 45 -205 105 -204 116 -316 174 -411 212 -32 13 -56 29 -54 34 3 6 52 152
111 324 94 277 104 314 89 319 -10 2 -200 64 -423 137 -273 90 -407 129 -412
122 -3 -7 -55 -144 -113 -306 -59 -162 -111 -299 -115 -303 -4 -5 -100 9 -211
32 -112 22 -260 47 -329 56 -69 9 -140 18 -157 21 l-33 5 0 333 0 333 -332 6
c-182 4 -383 7 -445 7 l-114 0 7 -340z m-74 -745 c3 -29 2 -30 -60 -41 -34 -6
-65 -13 -67 -16 -4 -4 44 -294 60 -365 4 -19 0 -23 -40 -29 -25 -3 -48 -4 -51
-1 -3 3 -20 88 -38 189 l-33 183 -29 -1 c-16 0 -47 -4 -70 -8 l-41 -7 -6 37
c-4 21 -5 40 -3 42 2 2 84 18 183 36 120 22 180 29 185 22 3 -6 8 -24 10 -41z
m508 15 l0 -40 -125 0 -125 0 0 -55 0 -55 115 0 115 0 0 -40 0 -40 -115 0
-115 0 0 -65 0 -65 130 0 130 0 0 -40 0 -40 -180 0 -180 0 0 240 0 240 175 0
175 0 0 -40z m450 -4 c29 -14 53 -36 67 -62 32 -55 30 -74 -6 -74 -16 0 -36
-3 -45 -6 -11 -4 -19 2 -25 19 -15 39 -58 67 -103 67 -77 0 -124 -84 -116
-204 4 -51 9 -63 36 -87 44 -40 102 -40 141 -1 15 15 30 33 32 40 5 16 89 -15
89 -33 0 -7 -13 -30 -29 -52 -66 -91 -216 -98 -305 -15 -44 42 -66 98 -66 174
0 208 158 321 330 234z m347 -50 c3 -2 -3 -43 -13 -90 -9 -48 -15 -89 -12 -91
8 -8 167 -39 172 -34 3 3 12 39 21 80 22 104 17 98 70 86 39 -9 46 -14 41 -31
-2 -12 -24 -113 -47 -226 -23 -113 -46 -209 -49 -213 -10 -12 -90 11 -90 26 0
7 9 50 19 97 11 47 16 88 13 92 -8 7 -172 41 -176 36 -2 -2 -11 -45 -21 -96
-10 -51 -21 -95 -26 -98 -5 -3 -27 0 -50 6 -31 9 -40 16 -37 28 3 9 24 113 49
230 l44 214 44 -6 c25 -3 46 -8 48 -10z m513 -130 c22 -10 29 -29 65 -178 22
-92 43 -169 46 -172 3 -3 25 57 49 135 24 77 47 142 50 144 11 7 80 -18 80
-28 0 -5 -32 -108 -71 -228 l-70 -219 -27 6 c-68 17 -65 12 -106 185 -22 90
-42 167 -45 171 -4 4 -26 -52 -50 -125 -24 -72 -46 -135 -50 -140 -6 -6 -67 8
-80 19 -2 2 29 105 70 229 80 246 70 233 139 201z m-2721 -38 c6 -17 8 -35 4
-38 -5 -4 -51 -22 -103 -40 -52 -18 -97 -35 -99 -36 -5 -4 30 -104 37 -104 3
0 43 14 89 31 45 16 87 28 92 25 5 -3 14 -20 20 -36 10 -29 8 -31 -26 -45 -19
-8 -37 -15 -39 -15 -2 0 -28 -9 -58 -20 l-54 -21 30 -82 c17 -45 31 -88 32
-96 1 -13 -70 -45 -83 -36 -10 5 -165 434 -159 440 8 8 273 104 290 104 9 1
21 -12 27 -31z m3367 -183 c50 -21 111 -82 130 -131 41 -108 -26 -267 -138
-325 -55 -28 -121 -25 -194 10 -133 63 -169 190 -93 332 65 121 175 164 295
114z m-3862 -16 c124 -34 216 -236 160 -354 -34 -72 -138 -135 -223 -135 -117
1 -241 143 -241 275 0 60 42 137 93 171 74 49 141 63 211 43z m4237 -169 l40
-21 -90 -174 -91 -173 102 -52 c57 -29 105 -54 107 -57 3 -2 -3 -19 -12 -38
l-17 -35 -150 75 c-82 41 -150 78 -150 81 0 10 211 414 216 414 3 0 23 -9 45
-20z m524 -262 c88 -44 135 -114 135 -200 0 -94 -70 -207 -153 -250 -90 -46
-225 -4 -291 90 -24 34 -31 56 -34 106 -5 75 15 127 73 194 77 89 169 109 270
60z m-5607 -20 l20 -32 -101 -69 c-56 -38 -103 -70 -105 -72 -4 -4 49 -85 55
-85 2 0 44 27 93 60 49 33 94 60 99 60 5 0 19 -13 30 -28 l20 -29 -99 -67 -99
-67 35 -54 36 -53 109 75 c61 41 111 74 113 72 1 -2 12 -18 24 -35 l21 -31
-151 -101 -151 -101 -134 196 c-73 108 -131 199 -128 201 10 11 280 191 287
191 3 1 15 -13 26 -31z m-398 -270 l23 -31 -52 -46 -52 -46 126 -150 126 -150
-36 -33 -35 -33 -116 138 c-64 76 -122 144 -129 152 -11 11 -21 7 -64 -29
l-51 -43 -25 23 c-14 13 -25 28 -24 34 0 8 275 246 284 246 1 0 12 -14 25 -32z
m6462 -60 c49 -15 123 -78 148 -129 23 -45 26 -126 6 -154 -13 -18 -14 -18
-49 4 -33 20 -35 24 -34 71 2 43 -2 53 -32 84 -64 66 -139 58 -214 -23 -47
-51 -63 -92 -52 -141 9 -41 57 -87 106 -101 36 -11 42 -11 62 9 l21 22 -39 40
-39 40 25 25 24 25 75 -75 74 -75 -64 -65 c-39 -39 -73 -65 -85 -65 -77 0
-195 83 -234 163 -25 51 -28 132 -7 182 22 52 95 125 151 151 56 26 99 30 157
12z m-6721 -401 c118 -111 144 -151 136 -209 -6 -48 -46 -108 -99 -151 -28
-23 -51 -31 -91 -35 -50 -4 -55 -2 -112 42 -33 25 -102 85 -153 133 l-94 88
34 32 33 32 120 -110 c126 -117 151 -133 191 -123 35 9 74 60 74 97 0 26 -18
48 -127 152 l-127 121 28 37 28 37 31 -26 c17 -14 74 -67 128 -117z m7099 17
c0 -7 -14 -52 -31 -99 -17 -47 -28 -89 -25 -92 3 -4 50 1 104 11 l97 17 33
-37 c17 -21 32 -40 32 -44 0 -4 -71 -17 -157 -29 -86 -12 -164 -27 -172 -34
-9 -7 -44 -37 -78 -65 l-61 -52 -31 39 -31 39 76 64 76 63 48 150 c27 83 50
152 50 155 2 10 70 -74 70 -86z m-7566 -278 l28 -24 -42 -56 c-24 -31 -41 -58
-39 -60 2 -2 72 -53 154 -115 83 -62 151 -115 153 -119 1 -4 -11 -23 -27 -42
l-28 -35 -157 120 c-91 68 -160 115 -164 109 -72 -107 -76 -109 -126 -70 -17
14 -11 23 95 165 63 83 116 150 119 150 3 0 18 -10 34 -23z m-256 -412 c31
-20 119 -77 194 -126 l137 -90 -26 -39 c-14 -21 -27 -39 -29 -39 -4 0 -376
241 -388 251 -10 9 30 79 45 79 6 0 36 -16 67 -36z m8380 -85 c13 -22 22 -42
20 -43 -2 -2 -43 -25 -92 -51 l-90 -49 138 -35 137 -36 30 -54 c16 -30 28 -56
26 -57 -2 -2 -56 13 -122 32 -94 28 -120 32 -127 22 -4 -7 -42 -75 -84 -152
l-76 -138 -29 51 c-16 27 -29 53 -29 57 0 4 26 50 59 103 32 53 61 101 65 108
4 8 -11 17 -45 27 l-52 16 -64 -34 -64 -34 -20 40 c-11 22 -17 44 -12 49 8 8
394 217 403 218 3 1 15 -18 28 -40z m-8527 -64 l30 -16 -35 -62 -35 -62 170
-93 c93 -51 169 -99 169 -105 0 -7 -9 -27 -20 -45 l-20 -33 -73 40 c-39 22
-117 65 -172 95 l-100 55 -31 -54 c-17 -30 -33 -57 -36 -61 -10 -9 -69 26 -66
40 7 26 172 316 180 316 5 0 22 -7 39 -15z m8772 -427 c9 -23 14 -45 10 -49
-5 -3 -41 -19 -81 -34 -40 -16 -75 -32 -77 -36 -4 -5 50 -152 61 -167 1 -2 41
13 88 32 l86 35 15 -36 c8 -19 15 -41 15 -47 0 -7 -93 -50 -207 -95 -115 -46
-213 -85 -219 -88 -13 -5 -47 78 -36 88 4 3 43 21 87 39 44 17 83 35 87 39 6
6 -47 149 -60 163 -4 3 -45 -9 -91 -28 -47 -19 -90 -34 -96 -34 -12 0 -42 76
-34 84 5 5 422 175 429 175 3 1 13 -18 23 -41z m-8933 -63 c0 -9 -6 -31 -14
-50 -12 -27 -21 -34 -47 -37 -41 -4 -71 -42 -72 -92 -1 -35 13 -55 37 -56 10
0 54 46 114 118 72 87 163 94 231 17 27 -31 31 -43 31 -93 -1 -138 -105 -247
-215 -226 -38 7 -40 11 -24 67 9 35 12 37 50 37 30 0 46 6 64 26 33 36 42 87
21 119 -31 47 -56 34 -140 -69 -49 -60 -90 -86 -140 -86 -31 0 -45 7 -77 39
-34 33 -39 45 -39 83 0 79 41 162 97 199 36 24 123 27 123 4z m-102 -489 c123
-35 225 -66 228 -69 3 -3 0 -24 -6 -46 -13 -49 -8 -47 -205 -102 -82 -23 -151
-42 -153 -44 -1 -1 58 -19 132 -39 73 -21 139 -42 146 -46 10 -6 10 -15 0 -44
-6 -20 -16 -36 -22 -36 -6 0 -109 28 -229 62 -217 62 -218 63 -212 88 16 66
12 64 195 114 95 27 174 50 176 51 1 1 -65 21 -148 45 -122 35 -150 46 -146
59 3 9 8 28 12 44 3 15 7 27 8 27 1 0 102 -29 224 -64z m9035 -37 c229 -25
215 -19 231 -94 6 -29 2 -33 -194 -180 -110 -83 -204 -149 -208 -148 -4 1 -12
22 -18 48 l-12 45 44 32 c24 17 44 38 44 46 0 8 -10 50 -21 93 l-22 78 -58 7
c-57 6 -59 8 -69 43 -17 61 -15 64 33 58 23 -3 136 -16 250 -28z m-9156 -455
c120 -25 220 -47 221 -49 6 -6 -9 -84 -17 -89 -7 -5 -449 89 -457 96 -10 11 9
88 22 88 8 0 112 -21 231 -46z m9483 -51 c20 -133 24 -229 10 -262 -13 -32
-78 -71 -119 -71 -38 0 -87 29 -106 63 l-17 32 -90 -88 c-50 -48 -93 -85 -96
-83 -3 3 -9 28 -13 56 l-8 51 47 42 c117 105 122 111 122 159 l0 45 -87 -13
c-49 -8 -93 -14 -99 -14 -12 0 -29 78 -19 88 3 3 105 20 228 38 122 17 225 32
228 33 4 0 12 -34 19 -76z m-170 -526 l235 -82 0 -54 0 -53 -220 -99 c-121
-54 -226 -98 -232 -98 -9 -1 -13 15 -13 49 l0 49 50 22 51 22 -3 95 -3 95 -47
16 c-26 9 -49 18 -51 21 -7 8 -15 100 -8 100 3 0 112 -37 241 -83z m-9170
-130 c0 -53 3 -51 -172 -158 l-137 -84 154 -3 155 -3 0 -44 0 -45 -240 0 -240
0 0 48 0 49 155 94 155 94 -155 3 -155 3 0 44 0 45 240 0 240 0 0 -43z m9300
-365 c80 -40 115 -100 115 -196 0 -111 -46 -184 -131 -210 -19 -6 -22 -1 -28
41 -4 34 -3 49 6 52 7 2 25 17 40 32 24 23 28 36 28 81 0 33 -6 62 -16 77 -38
53 -156 77 -229 47 -66 -28 -93 -114 -61 -191 13 -29 20 -35 45 -35 27 0 31 4
31 28 0 57 10 72 46 72 l34 0 0 -59 c0 -32 -3 -80 -7 -106 l-6 -48 -91 7
c-106 8 -117 15 -142 104 -31 107 1 234 73 289 76 58 195 65 293 15z m-9301
-124 c1 -24 -7 -32 -50 -53 l-51 -26 7 -77 c9 -108 9 -107 67 -123 49 -13 53
-16 60 -54 5 -22 7 -45 6 -51 -2 -7 -89 13 -248 56 l-245 67 0 53 0 53 220
117 220 117 6 -26 c4 -14 7 -38 8 -53z m9146 -419 c116 -17 214 -35 218 -39
10 -9 -27 -230 -44 -262 -32 -63 -89 -87 -161 -68 -88 24 -123 86 -107 193 14
101 19 93 -76 108 -92 13 -92 13 -79 78 5 23 11 30 23 27 9 -3 111 -19 226
-37z m-9080 -85 c3 -25 5 -47 3 -49 -6 -5 -463 -83 -467 -79 -2 1 -6 23 -8 48
-5 44 -5 45 28 51 176 33 407 73 420 74 12 1 19 -11 24 -45z m-29 -213 c24
-11 50 -33 62 -54 19 -29 86 -256 79 -263 -10 -10 -452 -113 -457 -107 -14 15
-52 194 -52 243 0 57 26 108 75 142 79 56 215 74 293 39z m9082 -188 c85 -21
156 -43 159 -49 8 -20 -17 -96 -30 -91 -7 2 -83 21 -170 43 -146 36 -160 37
-185 24 -38 -22 -58 -80 -42 -120 14 -34 30 -40 240 -93 120 -31 125 -33 122
-56 -2 -14 -8 -35 -12 -47 l-9 -22 -169 43 c-186 47 -196 51 -231 89 -50 53
-34 204 27 270 54 57 94 59 300 9z m-8883 -297 l17 -44 -115 -138 c-63 -77
-114 -140 -113 -141 1 -2 66 20 144 47 l143 50 8 -23 c26 -68 41 -57 -190
-137 -116 -40 -218 -73 -226 -74 -9 -1 -21 15 -29 38 -17 46 -27 29 115 202
77 94 98 124 80 119 -13 -4 -80 -27 -148 -50 l-123 -42 -14 33 c-8 18 -14 37
-14 43 0 5 62 30 138 57 75 26 171 60 212 75 41 15 80 28 87 28 6 1 19 -19 28
-43z m8697 -197 c143 -46 218 -75 215 -82 -2 -7 -23 -69 -46 -138 -47 -142
-73 -177 -138 -186 -78 -10 -139 36 -150 115 l-5 38 -43 -22 c-43 -21 -182
-60 -190 -52 -2 2 3 27 11 55 l15 51 90 23 c108 28 143 47 157 87 l11 31 -95
31 c-87 29 -94 34 -88 53 14 45 24 67 30 67 4 0 105 -32 226 -71z m-8534 -246
c5 -16 13 -35 17 -44 5 -14 -32 -33 -208 -108 -118 -50 -217 -91 -219 -91 -9
0 -41 80 -35 86 6 6 419 183 429 184 3 0 11 -12 16 -27z m8188 -339 c102 -48
74 -194 -36 -194 -88 0 -133 100 -75 169 14 16 36 32 48 34 12 2 24 5 25 6 2
0 19 -6 38 -15z m-8053 -35 c38 -41 37 -87 -4 -134 -43 -48 -87 -49 -135 -1
-56 56 -42 130 30 162 41 18 75 10 109 -27z"/>
<path d="M7868 11864 c-65 -34 -107 -169 -74 -233 35 -67 115 -89 177 -48 44
29 89 116 89 172 0 94 -108 155 -192 109z"/>
<path d="M4014 11841 c-18 -10 -39 -30 -48 -42 -35 -51 -12 -152 50 -216 35
-37 46 -43 83 -43 114 0 163 97 107 215 -32 68 -65 96 -118 102 -31 3 -52 -1
-74 -16z"/>
<path d="M8795 11443 c-53 -14 -102 -76 -123 -155 -23 -87 31 -158 120 -158
48 0 55 3 94 45 53 54 78 126 63 179 -16 59 -95 105 -154 89z"/>
<path d="M10490 8819 c0 -26 23 -99 32 -99 5 0 39 21 76 48 l67 47 -50 7 c-77
10 -125 9 -125 -3z"/>
<path d="M10770 8372 c-14 -1 -39 -5 -56 -7 l-31 -5 12 -74 c13 -85 26 -106
66 -106 50 0 62 24 54 104 -8 84 -12 92 -45 88z"/>
<path d="M10660 7750 c0 -32 3 -61 8 -63 4 -2 43 11 87 29 49 20 74 35 65 38
-8 3 -48 17 -87 30 l-73 25 0 -59z"/>
<path d="M1275 7107 l-80 -40 85 -22 85 -21 3 25 c2 14 -1 42 -5 62 l-8 37
-80 -41z"/>
<path d="M10676 6720 c-18 -94 2 -140 62 -140 40 0 61 29 69 98 6 55 13 50
-88 68 -34 5 -36 4 -43 -26z"/>
<path d="M1405 6456 c-97 -30 -122 -69 -104 -158 6 -29 14 -56 18 -60 5 -6
290 58 299 67 9 9 -32 122 -51 143 -16 17 -31 22 -71 21 -28 0 -69 -6 -91 -13z"/>
<path d="M10447 5700 c-23 -83 -22 -106 8 -126 42 -27 71 -12 94 51 38 102 39
101 -15 119 -26 9 -53 16 -59 16 -7 0 -19 -27 -28 -60z"/>
<path d="M5728 11462 c-30 -18 -58 -67 -58 -101 0 -12 7 -37 14 -56 13 -31 19
-35 52 -35 31 0 35 3 29 18 -24 55 -7 122 31 122 30 0 74 -31 109 -76 46 -62
46 -84 0 -84 -33 0 -35 -2 -35 -35 0 -33 2 -35 33 -35 l34 0 6 -107 c4 -58 7
-153 7 -210 l0 -103 42 0 41 0 -7 209 c-7 228 -9 221 50 221 20 0 24 5 24 30
0 28 -2 30 -38 30 -37 0 -39 2 -66 61 -31 67 -84 133 -127 155 -38 19 -108 17
-141 -4z"/>
<path d="M7100 11280 c-37 -37 -16 -92 35 -92 52 0 75 67 33 96 -30 21 -44 20
-68 -4z"/>
<path d="M5465 11211 l-290 -47 3 -29 c2 -17 5 -32 7 -34 2 -2 63 6 136 18 73
12 133 20 134 19 8 -11 34 -228 29 -242 -8 -21 -55 -46 -87 -46 -13 0 -36 9
-51 21 -57 45 -18 129 60 129 l34 0 -17 36 c-16 33 -20 35 -52 29 -83 -16
-131 -65 -131 -135 0 -114 107 -179 215 -131 26 12 49 21 51 21 2 0 4 -13 4
-29 0 -49 9 -61 45 -61 19 0 36 3 38 8 3 4 -4 59 -14 122 -18 111 -18 116 0
140 24 33 98 41 124 12 37 -41 17 -121 -34 -137 -19 -6 -24 -30 -13 -59 13
-33 102 7 134 59 31 50 25 142 -11 181 -53 57 -125 70 -191 34 l-36 -19 -7 40
c-4 22 -5 43 -2 45 5 6 217 23 280 24 36 0 37 1 37 36 0 33 -2 36 -25 32 -14
-3 -28 -1 -31 3 -8 13 -23 11 -339 -40z"/>
<path d="M6546 11205 c-16 -43 -8 -52 56 -65 109 -21 162 -107 103 -165 -28
-29 -84 -33 -125 -10 -37 21 -47 18 -52 -16 -4 -25 -1 -33 14 -37 14 -3 18
-14 18 -47 0 -105 27 -143 118 -169 74 -21 98 -20 105 2 2 9 8 25 12 35 6 14
2 17 -24 17 -50 0 -110 29 -127 62 -16 32 -11 84 7 72 17 -10 96 17 119 41 32
34 44 99 25 138 -8 16 -13 32 -11 34 2 2 45 -4 96 -14 l92 -17 -6 -41 c-4 -22
-11 -56 -17 -77 l-9 -36 -58 13 c-31 8 -57 13 -58 12 -1 -1 -5 -16 -8 -34 l-7
-32 61 -12 c39 -7 59 -16 57 -23 -10 -26 -38 -178 -34 -182 2 -3 20 -7 39 -10
l34 -6 23 109 c12 59 32 151 43 204 l20 96 36 -8 c39 -9 52 0 52 36 0 19 -24
26 -277 79 -152 32 -284 61 -293 63 -10 3 -20 -3 -24 -12z"/>
<path d="M4368 11146 c-83 -31 -128 -82 -128 -146 0 -47 18 -80 58 -106 l33
-23 -103 -54 c-57 -30 -146 -78 -198 -106 -52 -28 -123 -66 -157 -83 -35 -18
-63 -39 -63 -48 -1 -8 -55 -52 -120 -98 l-120 -83 17 -24 c10 -14 21 -25 25
-25 4 0 42 25 85 55 78 55 78 55 98 35 19 -20 19 -20 -5 -37 -36 -25 -71 -64
-81 -90 -17 -44 18 -93 66 -93 30 0 31 -2 27 -31 -6 -39 13 -75 49 -89 70 -29
192 39 241 135 27 54 26 53 52 20 l23 -29 32 23 31 23 -33 46 c-46 64 -192
274 -201 289 -4 8 23 28 77 57 46 25 87 46 90 46 3 0 49 -83 103 -184 l97
-184 34 16 c18 9 33 19 33 23 0 5 -43 89 -95 187 -52 98 -95 181 -95 184 0 3
14 11 31 18 19 8 28 18 25 26 -15 37 -16 46 -1 21 12 -21 21 -27 33 -21 46 19
50 14 133 -166 45 -96 85 -179 90 -184 10 -11 69 12 69 28 0 6 -39 92 -85 191
-74 156 -83 181 -69 190 46 29 46 29 33 58 -9 19 -17 26 -28 21 -9 -3 -28 -11
-43 -17 -80 -32 -152 101 -85 159 43 37 101 40 217 10 102 -25 103 -25 139 -6
l36 18 -30 12 c-110 42 -274 60 -337 36z m-370 -681 c39 -57 72 -115 72 -128
0 -34 -60 -128 -99 -154 -44 -30 -76 -29 -96 1 -15 22 -15 27 -1 54 9 17 32
40 51 52 34 21 35 23 19 41 -23 26 -28 25 -78 -21 -48 -45 -70 -50 -86 -19
-10 17 -6 25 27 57 21 21 49 45 63 54 l25 16 -32 44 -32 45 42 31 c23 17 44
31 47 31 3 0 38 -47 78 -104z"/>
<path d="M4813 11062 c-145 -47 -263 -89 -263 -93 0 -4 4 -19 9 -33 l10 -25
80 27 79 26 37 -29 c44 -33 74 -96 82 -170 5 -49 4 -54 -21 -70 -47 -31 -96
10 -96 81 0 28 2 27 -39 13 -25 -9 -31 -16 -31 -40 0 -17 7 -43 15 -59 43 -84
193 -78 238 10 36 69 0 201 -69 258 -27 22 -34 33 -23 37 54 20 133 45 135 43
1 -2 30 -91 64 -198 34 -107 63 -196 64 -197 4 -5 76 18 76 24 0 3 -27 90 -60
193 -33 103 -60 192 -60 198 0 6 15 16 34 22 33 11 34 13 24 41 -5 16 -13 29
-16 28 -4 0 -125 -39 -269 -87z"/>
<path d="M7211 11028 c-6 -17 -11 -32 -11 -33 0 -2 27 -13 61 -25 102 -38 140
-120 83 -177 -21 -21 -32 -25 -65 -20 -22 3 -55 17 -73 31 l-34 26 -12 -33
c-9 -28 -8 -34 8 -44 16 -12 17 -19 8 -73 -14 -86 3 -118 85 -159 81 -41 114
-41 127 -1 10 28 9 30 -16 36 -79 17 -123 53 -124 101 -1 43 8 53 41 47 95
-19 183 84 147 171 -15 35 -15 37 2 30 9 -4 45 -18 78 -30 l61 -24 12 26 c7
14 8 30 4 34 -4 4 -80 35 -168 69 -88 34 -170 66 -182 70 -18 8 -23 4 -32 -22z"/>
<path d="M3862 10912 c-10 -6 -11 -20 -7 -46 6 -30 11 -36 24 -29 9 4 48 8 86
8 58 -1 79 -6 121 -29 35 -19 59 -26 73 -21 36 11 20 27 -72 75 -70 35 -100
45 -150 47 -34 2 -68 0 -75 -5z"/>
<path d="M7710 10808 c-46 -31 -46 -41 -5 -61 31 -15 36 -15 41 -2 7 18 45 20
62 3 31 -31 -6 -92 -55 -90 -33 1 -84 21 -120 48 -22 16 -23 15 -43 -27 -28
-62 -27 -146 3 -189 31 -46 105 -89 173 -100 31 -5 59 -11 61 -14 3 -3 -7 -27
-23 -55 -15 -28 -25 -52 -23 -54 14 -10 59 -37 62 -37 2 0 48 81 103 180 54
98 103 179 107 180 13 0 156 -104 156 -114 1 -4 -53 -83 -119 -174 l-121 -166
28 -22 c15 -13 30 -23 34 -24 3 0 60 76 128 170 l123 170 32 -25 32 -25 21 29
21 28 -126 94 c-150 110 -302 219 -306 219 -2 0 -11 -12 -21 -26 -12 -18 -13
-29 -6 -38 6 -7 8 -16 4 -19 -3 -4 -2 -7 3 -7 6 0 19 -6 29 -14 17 -12 16 -17
-29 -100 -55 -101 -73 -113 -148 -96 -60 12 -96 30 -127 64 -19 20 -23 32 -18
62 3 20 8 38 10 40 2 3 24 -5 48 -16 65 -29 119 -26 151 8 73 76 58 157 -39
206 -43 22 -64 20 -103 -6z"/>
<path d="M7433 10701 c-10 -29 -10 -29 44 -50 30 -12 61 -21 68 -21 11 0 24
28 25 52 0 6 -102 48 -118 48 -4 0 -13 -13 -19 -29z"/>
<path d="M5955 10609 c-504 -41 -1033 -221 -1446 -491 -382 -250 -606 -500
-813 -907 -181 -356 -267 -684 -267 -1026 -1 -286 57 -509 188 -727 40 -66 49
-76 62 -65 14 11 14 10 2 -5 -12 -16 -7 -26 45 -90 32 -40 101 -117 153 -172
257 -264 520 -416 818 -472 132 -25 383 -15 514 20 177 47 325 114 482 219
l96 64 5 -26 c31 -156 46 -337 46 -553 0 -98 -4 -178 -9 -178 -4 0 -48 18 -97
41 -294 136 -539 205 -819 230 -514 46 -1051 -151 -1408 -518 l-58 -59 -898
-1975 c-494 -1086 -928 -2035 -965 -2109 -36 -74 -70 -157 -75 -184 -15 -83
13 -140 75 -152 56 -10 95 3 215 72 830 480 1662 673 2489 579 473 -55 880
-176 1254 -373 103 -54 111 -61 140 -113 66 -118 147 -192 282 -256 73 -35 80
-36 187 -36 237 0 392 79 471 242 l31 64 155 78 c583 294 1165 432 1755 416
412 -12 774 -82 1145 -224 136 -52 383 -170 477 -228 l42 -25 15 22 c9 12 16
18 16 12 0 -5 -6 -16 -12 -23 -17 -16 0 -29 114 -87 107 -54 168 -69 214 -54
36 12 64 52 64 90 0 17 -795 1638 -2113 4307 -102 207 -91 195 -282 293 -275
140 -558 198 -920 187 -220 -6 -406 -34 -604 -92 -107 -30 -222 -54 -269 -55
-11 0 -12 18 -7 83 15 192 53 528 60 536 2 2 26 -16 52 -39 119 -105 284 -183
464 -220 144 -30 384 -24 535 14 461 115 800 407 1034 891 142 292 210 543
210 770 0 308 -81 643 -226 934 -119 241 -237 391 -444 569 -267 229 -477 372
-755 513 -195 98 -367 164 -557 213 -183 48 -295 65 -499 76 -194 11 -221 11
-364 -1z m355 -119 c272 -19 466 -59 706 -146 357 -129 719 -346 1026 -616 42
-38 81 -68 86 -68 13 0 126 -126 192 -215 153 -206 272 -491 329 -790 27 -135
45 -362 36 -450 -24 -246 -183 -644 -353 -884 -218 -309 -538 -517 -886 -577
-123 -22 -361 -15 -461 13 -145 41 -274 110 -367 196 -34 31 -36 36 -28 70 26
118 166 245 358 327 77 32 112 39 94 17 -17 -21 -25 -109 -13 -153 36 -133
237 -254 402 -242 74 5 221 77 354 173 50 36 101 68 114 72 20 5 136 -7 214
-24 l27 -5 0 89 c0 158 -53 278 -179 404 -84 83 -157 136 -271 195 l-75 39
-189 3 c-103 2 -198 1 -210 -2 -33 -8 -98 -64 -152 -129 l-47 -58 -8 -111 c-5
-61 -10 -112 -11 -113 -2 -1 -37 -14 -78 -29 -41 -14 -114 -49 -162 -76 -85
-47 -109 -53 -68 -15 15 14 20 31 20 74 0 82 67 208 184 351 77 93 306 315
431 418 179 148 178 147 173 186 -4 33 -4 33 57 45 136 28 277 108 404 227
102 96 127 106 274 112 l118 4 -7 62 c-4 33 -12 72 -19 86 -30 59 -272 259
-296 244 -7 -4 -9 -3 -6 3 4 6 -27 26 -71 46 -292 133 -552 136 -740 10 -98
-67 -124 -155 -77 -266 16 -39 17 -39 -80 -67 -80 -24 -274 -169 -497 -373
-98 -88 -105 -86 -67 26 49 149 174 321 403 555 102 103 119 125 110 140 -19
29 -56 43 -106 39 -119 -10 -254 -160 -488 -540 -119 -194 -158 -272 -171
-339 -6 -32 -14 -58 -19 -58 -23 0 -29 89 -32 440 l-3 375 60 7 c130 17 271
86 328 161 16 21 40 63 55 95 25 53 27 67 27 187 0 175 -16 228 -82 275 -146
104 -327 315 -388 454 -14 31 -32 59 -41 63 -19 7 -86 -26 -78 -38 3 -5 1 -9
-3 -9 -5 0 -17 -30 -27 -66 -28 -98 -81 -173 -147 -208 -82 -44 -178 -148
-227 -247 -146 -291 -12 -564 321 -654 l67 -18 0 -398 c0 -220 -2 -399 -4
-399 -2 0 -18 24 -34 53 -50 88 -178 262 -347 472 -237 296 -282 336 -343 314
-25 -9 -37 -47 -28 -85 4 -14 29 -50 57 -79 27 -29 70 -88 95 -131 44 -76 174
-337 174 -349 0 -3 -15 5 -32 18 -65 49 -176 112 -353 200 -99 49 -182 91
-184 93 -2 2 4 24 13 50 21 61 20 147 -1 210 -34 101 -184 214 -321 243 -305
64 -757 -170 -912 -472 -42 -83 -52 -147 -27 -180 10 -15 20 -15 79 -6 76 12
178 1 244 -27 21 -9 65 -36 98 -60 79 -60 168 -109 257 -142 66 -24 88 -27
199 -27 110 0 130 3 166 22 62 33 119 104 144 178 21 62 22 63 48 54 64 -23
218 -109 301 -167 107 -76 266 -238 336 -342 153 -229 258 -540 280 -830 l6
-85 -25 40 c-13 22 -53 87 -88 143 -252 414 -672 762 -1085 901 -139 47 -203
39 -203 -27 0 -40 8 -46 80 -66 82 -22 197 -79 298 -148 96 -65 344 -311 442
-438 91 -118 254 -364 243 -367 -4 -1 -91 28 -192 66 l-184 68 -40 79 c-112
215 -312 306 -577 263 -90 -14 -256 -72 -252 -88 1 -7 -2 -10 -8 -6 -23 14
-187 -160 -250 -265 -44 -73 -90 -202 -90 -250 0 -30 2 -32 28 -26 15 4 68 9
118 13 126 8 177 -6 250 -68 123 -105 252 -144 446 -136 103 4 121 7 161 31
76 44 131 122 162 229 l17 58 41 -6 c182 -28 370 -106 435 -180 22 -25 45 -45
53 -45 46 0 -169 -147 -314 -215 -187 -87 -332 -120 -532 -119 -128 1 -164 5
-248 27 -182 48 -343 132 -500 258 -146 117 -330 315 -391 420 -83 142 -101
178 -133 267 -89 249 -103 506 -42 812 69 345 241 718 468 1015 52 69 230 255
243 255 4 0 43 28 86 61 370 295 852 506 1343 588 230 39 366 46 589 31z m864
-1677 c-14 -32 -16 -126 -4 -166 15 -51 81 -116 153 -151 l57 -28 -55 -34
c-31 -18 -106 -71 -168 -117 -62 -46 -128 -94 -147 -107 -110 -74 -225 -198
-353 -381 -95 -137 -201 -316 -231 -388 -27 -66 -70 -131 -87 -131 -6 0 -9
121 -7 348 l3 347 28 60 c15 32 38 73 51 90 13 16 24 33 24 38 1 4 18 39 38
77 62 118 271 300 539 470 55 35 109 69 120 76 30 19 49 18 39 -3z m-2184
-534 c52 -28 106 -59 120 -70 16 -13 9 -11 -20 6 -65 38 -263 135 -277 135 -6
0 -15 5 -18 10 -10 15 88 -25 195 -81z m196 -120 c3 -6 -5 -3 -20 6 -14 10
-26 19 -26 22 0 7 39 -17 46 -28z m150 -115 c30 -28 17 -19 -36 22 -100 78
-123 100 -59 55 25 -18 68 -52 95 -77z m264 -251 c0 -8 -13 5 -110 105 l-105
107 108 -105 c59 -57 107 -106 107 -107z m-793 21 c-3 -3 -12 -4 -19 -1 -8 3
-5 6 6 6 11 1 17 -2 13 -5z m70 -10 c-3 -3 -12 -4 -19 -1 -8 3 -5 6 6 6 11 1
17 -2 13 -5z m134 -53 c24 -16 64 -50 89 -77 l45 -49 -55 52 c-30 28 -75 63
-100 77 -25 14 -40 26 -34 26 5 0 30 -13 55 -29z m619 4 c13 -14 21 -25 18
-25 -2 0 -15 11 -28 25 -13 14 -21 25 -18 25 2 0 15 -11 28 -25z m51 -62 c13
-16 12 -17 -3 -4 -10 7 -18 15 -18 17 0 8 8 3 21 -13z m2430 -710 c13 -16 12
-17 -3 -4 -10 7 -18 15 -18 17 0 8 8 3 21 -13z m-3196 -654 c263 -23 557 -109
817 -240 32 -16 67 -31 80 -32 21 -4 22 -7 19 -113 -15 -733 -289 -1484 -710
-1949 -81 -89 -178 -236 -187 -282 -21 -112 100 -85 371 82 180 110 298 195
339 241 64 75 118 92 159 52 12 -13 25 -22 29 -21 4 2 5 -3 2 -10 -7 -18 85
-233 141 -332 25 -44 64 -98 85 -120 l40 -41 0 -672 c0 -633 -1 -672 -17 -672
-10 0 -38 -9 -62 -20 -24 -11 -45 -19 -47 -17 -2 2 15 49 37 106 37 98 39 104
22 117 -20 15 -43 18 -43 6 0 -5 -7 -17 -15 -28 -14 -17 -15 -16 -1 13 15 31
15 31 -17 50 -87 52 -326 152 -517 218 -344 118 -660 188 -1065 237 -166 19
-653 17 -835 -5 -196 -24 -346 -51 -522 -96 l-146 -37 53 150 c90 255 674
1905 843 2381 184 517 328 896 345 907 31 20 193 72 290 94 175 40 324 50 512
33z m2640 -49 c61 -6 155 -20 210 -31 110 -22 326 -90 307 -97 -7 -2 -12 -10
-12 -17 0 -7 279 -736 619 -1621 341 -885 618 -1610 617 -1612 -2 -1 -64 3
-137 10 -184 17 -933 17 -1099 0 -381 -40 -681 -101 -965 -199 -246 -84 -583
-268 -676 -369 -15 -16 -34 -54 -44 -84 -10 -30 -20 -58 -24 -62 -4 -4 -29 1
-56 11 l-50 19 -3 691 -2 691 23 38 c13 20 48 84 77 141 64 124 122 191 167
191 17 0 77 -22 134 -49 57 -27 140 -61 184 -75 94 -31 269 -66 326 -66 l41 0
-81 90 c-142 159 -230 288 -326 480 -127 253 -230 574 -265 825 -7 50 -21 133
-31 185 -28 147 -49 371 -51 569 -2 98 0 182 3 185 3 4 46 11 95 17 49 6 103
17 121 25 18 8 83 28 145 44 265 69 517 92 753 70z m1081 -1115 c207 -490 522
-1236 701 -1660 179 -423 385 -912 458 -1085 74 -173 132 -316 131 -318 -2 -1
-47 15 -100 35 l-97 38 -745 1935 c-409 1064 -747 1943 -750 1955 -6 18 -5 19
10 5 9 -9 185 -416 392 -905z m-4911 763 c-21 -48 -1256 -2853 -1612 -3663
l-145 -330 -115 -67 c-63 -37 -113 -62 -110 -55 3 6 203 446 445 977 242 531
652 1431 911 2000 l471 1035 82 77 c46 43 86 78 90 78 4 0 -4 -24 -17 -52z
m5423 -1568 c330 -668 737 -1494 906 -1834 168 -341 304 -621 303 -623 -2 -2
-62 25 -133 60 -71 35 -143 69 -160 76 -27 11 -38 31 -118 219 -531 1250
-1399 3300 -1404 3312 -3 8 -3 13 1 10 3 -3 275 -552 605 -1220z m-5557 903
c-12 -20 -14 -14 -5 12 4 9 9 14 11 11 3 -2 0 -13 -6 -23z m-510 -1289 c-274
-692 -540 -1364 -591 -1492 -50 -128 -90 -235 -87 -238 5 -5 119 35 127 45 3
3 10 7 15 7 6 1 54 16 107 33 238 75 473 125 753 157 203 24 648 24 865 1 360
-39 753 -123 1090 -233 150 -48 404 -145 418 -158 5 -6 -26 -95 -38 -109 -4
-4 -40 5 -81 21 -140 56 -419 142 -621 192 -491 121 -903 168 -1373 157 -515
-12 -945 -97 -1379 -273 -60 -25 -110 -43 -112 -42 -1 2 63 152 142 333 80
182 255 580 389 885 134 305 359 818 500 1140 141 322 282 642 313 713 30 70
57 126 59 124 1 -2 -221 -570 -496 -1263z m5969 -1195 c91 -6 196 -13 235 -17
l69 -7 25 -58 c13 -31 22 -60 18 -63 -3 -3 -68 0 -144 8 -187 18 -913 18
-1083 0 -439 -46 -788 -122 -1105 -239 -163 -61 -380 -168 -497 -246 -54 -35
-98 -62 -98 -60 0 32 48 150 69 169 53 51 180 128 326 200 341 166 781 272
1295 313 156 12 701 12 890 0z m-4640 -24 c168 -20 385 -57 527 -90 266 -63
624 -184 840 -286 l103 -47 -21 -51 -21 -50 -52 21 c-563 226 -1103 351 -1683
389 -447 29 -1002 -30 -1378 -146 -43 -13 -81 -22 -83 -20 -8 8 21 66 37 74
38 20 272 94 384 122 206 50 389 78 677 103 98 9 543 -4 670 -19z m4530 -235
c287 -13 498 -31 515 -44 11 -9 107 -237 101 -243 0 0 -68 18 -151 42 -253 73
-534 124 -800 146 -202 17 -582 6 -760 -20 -433 -66 -842 -219 -1194 -448 -46
-30 -84 -53 -86 -51 -1 2 -7 18 -14 37 -14 43 -11 46 92 112 180 116 489 246
757 319 451 123 991 175 1540 150z m-7290 -916 c0 -8 -4 -12 -10 -9 -5 3 -10
10 -10 16 0 5 5 9 10 9 6 0 10 -7 10 -16z"/>
<path d="M5589 3460 c-73 -22 -129 -105 -129 -189 1 -139 134 -234 238 -171
l32 20 0 -23 c0 -69 -44 -137 -90 -137 -27 0 -60 27 -60 48 0 8 -18 12 -50 12
-58 0 -61 -8 -30 -70 32 -63 110 -91 191 -70 58 16 123 80 140 140 18 61 18
243 0 304 -31 107 -139 168 -242 136z m105 -121 c20 -23 26 -41 26 -78 0 -64
-28 -101 -75 -101 -48 0 -75 37 -75 102 0 49 13 86 34 100 26 17 65 7 90 -23z"/>
<path d="M5051 3425 c-11 -20 -47 -52 -80 -73 -60 -37 -60 -37 -61 -84 0 -27
2 -48 5 -48 12 0 104 50 110 60 20 32 25 -7 25 -195 l0 -205 55 0 55 0 0 290
0 290 -44 0 c-40 0 -46 -3 -65 -35z"/>
<path d="M7180 3450 c0 -20 -80 -97 -120 -115 -39 -17 -40 -20 -40 -67 0 -60
8 -60 88 -8 l62 40 0 -210 0 -210 55 0 55 0 0 290 0 290 -50 0 c-27 0 -50 -5
-50 -10z"/>
<path d="M6479 3448 c-5 -14 -56 -294 -54 -296 1 -2 19 -6 39 -9 27 -4 47 0
79 17 66 35 121 14 136 -53 18 -75 -17 -147 -71 -147 -41 0 -63 14 -78 51 -12
27 -17 30 -43 25 -16 -3 -40 -6 -53 -6 -32 0 -32 -35 -1 -81 70 -105 215 -116
303 -24 85 88 82 225 -6 299 -35 29 -101 50 -130 42 -62 -18 -58 -21 -47 34
l10 50 103 0 104 0 0 50 0 50 -145 0 c-80 0 -145 -1 -146 -2z"/>
<path d="M8421 10377 l-22 -22 138 -132 138 -132 -30 -30 -31 -31 -86 80 c-87
81 -157 123 -187 112 -96 -34 -131 -138 -69 -208 56 -63 121 -76 167 -33 27
26 26 40 -3 68 l-24 23 -21 -21 c-26 -26 -36 -26 -61 -1 -24 24 -25 38 -4 68
29 42 63 30 155 -57 l84 -79 -55 -59 c-30 -32 -71 -75 -90 -96 l-34 -37 27
-28 28 -27 67 70 c37 39 102 108 145 153 l79 84 29 -28 c28 -27 29 -27 49 -9
11 10 19 24 18 31 -2 10 -318 311 -369 351 -12 10 -19 8 -38 -10z"/>
<path d="M3156 10362 c-9 -17 -16 -33 -16 -35 0 -2 36 -2 81 1 78 4 209 -19
209 -37 0 -4 -10 -17 -23 -29 -20 -19 -27 -20 -67 -11 -63 15 -175 5 -242 -20
-48 -19 -58 -27 -58 -46 0 -52 6 -53 91 -11 68 34 93 41 153 44 l71 3 -110
-105 c-60 -58 -110 -110 -110 -115 0 -6 -31 -45 -69 -87 l-69 -76 24 -19 c29
-23 33 -23 49 -4 10 12 22 6 80 -46 l68 -60 62 16 c34 9 65 15 70 13 4 -2 -1
-37 -10 -78 -20 -81 -17 -90 31 -90 26 0 26 2 49 140 13 77 26 140 30 140 4 0
13 -7 20 -15 7 -9 34 -33 60 -55 l47 -39 27 28 27 28 -156 144 -156 144 68 63
c52 48 70 59 78 50 7 -7 69 -77 140 -155 70 -79 131 -143 135 -143 3 0 17 11
30 25 23 25 23 25 4 47 -23 28 -187 211 -228 255 l-30 33 27 28 27 28 -25 24
-25 24 -29 -28 -28 -27 -71 37 c-58 30 -84 38 -145 42 l-75 5 -16 -31z m228
-497 c-9 -54 -15 -60 -80 -74 l-57 -13 -55 55 -55 55 64 71 63 71 64 -62 c61
-61 63 -64 56 -103z"/>
<path d="M9127 9654 c-15 -8 -26 -18 -24 -22 2 -4 21 -35 41 -69 40 -68 41
-89 3 -130 -32 -36 -78 -31 -116 13 -18 20 -34 48 -37 64 -6 28 -6 28 -35 11
-23 -12 -28 -21 -24 -38 4 -16 -6 -38 -35 -75 -22 -29 -45 -69 -51 -89 -16
-52 11 -128 65 -185 41 -43 62 -50 119 -45 14 2 93 -68 85 -74 -2 -1 -24 -14
-50 -29 -53 -31 -56 -40 -29 -75 l19 -25 174 104 c95 56 176 105 180 107 4 2
15 -10 24 -27 21 -34 26 -36 59 -14 l23 15 -175 292 c-96 161 -178 295 -181
299 -4 3 -20 0 -35 -8z m167 -347 c42 -68 76 -128 76 -133 0 -5 -41 -33 -91
-62 -86 -51 -91 -53 -114 -38 -31 20 -50 78 -35 105 23 44 104 30 118 -21 4
-18 5 -18 28 3 32 30 30 41 -16 83 -52 47 -78 52 -133 28 -47 -21 -77 -61 -77
-102 0 -29 -50 -27 -77 3 -28 30 -53 81 -53 107 0 27 22 70 49 94 20 18 21 18
55 -12 19 -17 44 -33 55 -37 49 -15 131 39 131 86 0 11 2 19 4 19 3 0 39 -56
80 -123z"/>
<path d="M2702 9428 c-50 -84 -244 -439 -241 -442 15 -13 52 -26 57 -21 4 3
23 34 42 68 33 56 39 62 72 65 67 6 81 -58 28 -130 -25 -34 -25 -35 8 -52 42
-22 116 -30 156 -16 67 22 135 127 136 208 0 49 9 52 65 17 22 -14 43 -25 47
-25 13 0 40 62 31 70 -4 5 -75 45 -158 90 -215 118 -198 105 -179 141 8 17 14
32 12 34 -6 5 -47 25 -52 25 -2 0 -13 -15 -24 -32z m131 -197 c50 -28 57 -37
59 -64 2 -55 -3 -91 -18 -120 -27 -51 -51 -67 -99 -67 l-45 0 20 37 c21 40 26
93 10 122 -13 25 -64 45 -95 37 -14 -4 -25 -4 -25 -2 0 5 31 62 57 104 l14 23
32 -19 c18 -11 58 -34 90 -51z"/>
<path d="M9515 8958 c-11 -6 -21 -12 -23 -13 -1 -1 20 -60 47 -131 49 -130 50
-143 10 -144 -9 0 -22 19 -33 53 -22 61 -59 114 -90 129 -36 16 -93 -13 -112
-57 -16 -40 -10 -78 26 -157 27 -60 26 -86 -6 -99 -50 -18 -101 44 -112 137
-4 35 -1 45 16 55 17 11 18 17 10 43 -6 17 -14 35 -18 39 -12 13 -69 -60 -76
-98 -13 -71 37 -193 97 -236 61 -43 147 -21 175 47 15 37 12 50 -36 160 -26
59 -22 84 14 84 21 0 28 -11 61 -92 20 -51 38 -94 40 -96 1 -2 26 6 54 17 l52
20 19 -44 c19 -43 20 -44 50 -34 22 8 29 16 25 28 -25 78 -153 395 -160 397
-6 2 -19 -2 -30 -8z"/>
<path d="M2431 8885 c-12 -34 -13 -35 -69 -35 -65 0 -152 -21 -188 -45 -85
-55 -84 -195 1 -231 64 -26 94 -17 109 34 7 19 4 22 -22 22 -38 0 -82 35 -82
65 0 31 40 62 107 81 81 24 96 16 78 -41 -5 -16 0 -23 25 -32 30 -11 32 -10
42 18 5 16 14 29 20 29 5 0 93 -34 195 -76 144 -58 188 -72 195 -62 14 22 22
62 12 65 -214 84 -369 152 -368 164 1 8 4 23 8 35 5 16 0 23 -19 32 -14 7 -27
12 -28 12 -2 0 -9 -16 -16 -35z"/>
<path d="M2311 8623 c-5 -21 -33 -123 -60 -228 -28 -104 -51 -195 -51 -201 0
-17 51 -28 60 -13 4 6 24 75 45 153 20 77 40 144 44 148 6 6 79 -8 89 -17 2
-2 -9 -27 -24 -57 -22 -42 -28 -67 -29 -120 0 -80 18 -111 85 -145 79 -41 152
-26 202 39 50 66 52 76 21 102 l-27 23 -27 -43 c-34 -53 -61 -68 -105 -59 -48
9 -74 40 -74 89 0 47 43 146 62 146 7 0 62 -13 122 -30 61 -16 111 -28 111
-27 5 7 25 71 23 73 -2 1 -88 25 -193 53 -104 28 -195 53 -202 56 -9 3 -9 13
-3 37 11 36 7 43 -32 52 -25 6 -28 3 -37 -31z"/>
<path d="M9014 8545 c-15 -23 -15 -27 0 -49 29 -46 71 -43 97 6 8 14 6 26 -6
44 -22 33 -69 33 -91 -1z"/>
<path d="M9712 8352 c-10 -7 -9 -24 3 -87 l15 -79 -32 -33 c-36 -37 -107 -63
-173 -63 -60 0 -80 19 -76 73 1 24 63 49 97 41 25 -6 26 -6 19 27 -10 47 -12
49 -48 49 -75 0 -133 -69 -124 -148 9 -85 56 -122 155 -122 73 0 124 19 169
62 28 27 32 28 36 12 8 -28 27 -137 24 -139 -1 -2 -92 -19 -202 -40 -110 -21
-202 -39 -203 -41 -2 -1 -1 -20 3 -42 l6 -39 172 34 c267 52 243 50 250 14 5
-25 12 -31 31 -31 14 0 27 4 31 10 3 5 -18 131 -47 280 -48 248 -54 270 -73
270 -11 0 -26 -4 -33 -8z"/>
<path d="M2185 8088 c-6 -29 -54 -382 -52 -384 1 -1 16 -5 33 -8 l32 -7 7 53
c10 79 22 112 55 143 37 36 85 38 112 6 22 -28 24 -100 3 -140 -17 -34 -12
-41 31 -41 23 0 33 5 37 20 4 16 14 20 49 21 65 0 109 20 131 56 16 28 44 159
35 168 -1 2 -20 6 -40 10 l-38 7 0 -46 c0 -78 -36 -126 -93 -126 -22 0 -25 5
-32 54 -8 68 -34 102 -87 117 -45 12 -84 5 -111 -18 -9 -9 -19 -14 -21 -12 -2
2 0 31 5 63 12 72 7 86 -25 86 -18 0 -27 -6 -31 -22z"/>
<path d="M9820 7671 l0 -29 -109 -4 c-118 -3 -141 -12 -185 -72 -27 -36 -29
-130 -3 -169 l17 -27 -70 0 -70 0 0 -40 0 -40 210 0 210 0 0 -35 c0 -33 2 -35
35 -35 l35 0 0 240 0 240 -35 0 c-32 0 -35 -3 -35 -29z m0 -206 l0 -95 -104 0
-104 0 -21 34 c-27 42 -27 86 -1 119 22 27 41 31 173 35 l57 2 0 -95z"/>
<path d="M2126 7503 c-3 -82 -8 -202 -9 -268 l-2 -120 33 -3 c24 -2 32 1 32
12 0 9 5 16 11 16 7 0 9 11 6 30 -7 34 -5 35 99 44 l61 5 7 -52 c10 -86 10
-87 -26 -87 -139 0 -198 -34 -198 -113 0 -90 35 -137 103 -137 23 0 53 7 65
16 l22 15 -21 30 c-15 22 -25 27 -32 20 -16 -16 -54 -13 -61 5 -20 53 -1 68
97 79 l67 7 0 -27 c0 -95 81 -151 160 -110 41 21 60 53 60 103 0 83 -42 122
-130 122 l-37 0 -7 62 c-3 34 -5 63 -3 64 1 2 44 6 96 10 l93 7 -7 36 c-4 20
-8 38 -11 40 -2 2 -90 -4 -196 -13 -106 -9 -199 -16 -206 -16 -14 0 -15 44 -5
140 l6 63 209 -8 208 -7 0 40 0 39 -137 6 c-75 4 -169 7 -210 7 l-73 0 0 45
c0 43 -1 45 -28 45 l-29 0 -7 -147z m398 -509 c9 -8 16 -22 16 -29 0 -41 -71
-61 -90 -26 -19 36 -12 59 18 64 15 2 30 5 34 6 4 0 14 -6 22 -15z"/>
<path d="M9216 7598 c-77 -134 -73 -289 8 -323 74 -31 126 22 126 129 0 55 -1
56 -28 56 -26 0 -27 -2 -24 -40 5 -44 -10 -70 -39 -70 -59 0 -49 129 16 214
l34 45 -24 15 c-35 23 -42 21 -69 -26z"/>
<path d="M9825 7148 c-2 -7 -6 -39 -10 -70 -4 -39 -15 -69 -35 -96 -75 -104
-182 -28 -138 96 10 26 16 47 15 48 -1 1 -17 5 -35 9 -28 6 -34 4 -39 -13 -4
-16 -17 -22 -56 -27 -112 -15 -145 -52 -155 -170 l-4 -62 32 -7 c47 -9 48 -8
42 19 -13 70 31 145 86 145 28 0 30 -2 37 -54 3 -30 15 -66 26 -80 38 -48 128
-58 172 -18 20 17 20 16 14 -49 l-6 -67 31 -6 c18 -3 34 -2 38 4 10 16 52 388
45 399 -9 15 -55 14 -60 -1z"/>
<path d="M1430 633 l-462 -618 2575 -3 c1417 -1 3736 -1 5156 0 l2580 3 -382
617 -382 618 -4312 0 -4311 0 -462 -617z m2241 277 l299 0 0 -40 c0 -36 -2
-40 -25 -40 l-25 0 0 -230 0 -230 -50 0 -50 0 0 230 0 230 -65 0 -65 0 0 -150
0 -150 -26 0 c-18 0 -45 19 -90 62 -35 33 -64 67 -64 74 0 17 32 34 64 34 25
0 26 1 26 70 l0 71 -102 -3 -103 -3 -3 -232 -2 -233 -45 0 -45 0 0 235 0 235
-65 0 -65 0 0 -235 0 -235 -50 0 -50 0 0 61 c0 54 -2 60 -17 54 -57 -24 -94
-29 -140 -16 -85 22 -150 91 -160 169 l-5 37 42 2 c60 2 83 26 77 81 -7 67
-27 82 -109 82 l-68 0 0 35 0 35 308 0 307 1 -104 100 c-57 55 -102 101 -100
103 2 1 17 12 32 24 l29 21 105 -124 105 -125 299 0z m2161 224 c5 -3 8 -16 8
-30 0 -22 -4 -24 -42 -24 -24 0 -49 -7 -60 -17 -24 -21 -23 -74 2 -123 l20
-40 355 0 355 0 0 -35 c0 -32 -2 -35 -30 -35 l-30 0 0 -230 0 -230 -45 0 -45
0 0 120 0 120 -48 0 c-42 0 -51 4 -70 30 -12 16 -22 32 -22 35 0 3 32 5 70 5
l70 0 0 75 0 75 -75 0 -75 0 0 -74 c0 -99 -11 -124 -60 -143 l-39 -16 21 -31
c12 -17 43 -56 70 -88 l48 -56 -31 -26 c-17 -14 -34 -26 -38 -26 -11 0 -174
226 -207 288 l-29 52 25 20 c34 27 41 25 72 -20 48 -69 78 -45 78 59 l0 61
-140 0 -140 0 -2 -232 -3 -233 -45 0 -45 0 -3 118 -3 117 -74 0 -75 0 0 -39
c0 -46 -20 -67 -48 -52 -11 6 -41 34 -66 63 -55 63 -58 91 -8 96 l32 3 0 80 0
79 -200 0 -200 0 0 -51 0 -51 25 16 c33 22 103 20 142 -4 48 -29 67 -65 67
-124 0 -58 -19 -99 -71 -156 -37 -41 -41 -42 -87 -5 -19 15 -19 16 11 48 41
43 53 69 53 111 0 40 -28 76 -59 76 -11 0 -33 -12 -50 -26 l-31 -26 0 -139 0
-139 -50 0 -50 0 0 60 0 60 -26 -10 c-104 -40 -214 33 -214 142 0 73 20 112
69 131 62 25 121 33 121 16 0 -8 3 -24 6 -36 6 -20 3 -23 -23 -23 -17 0 -42
-9 -57 -21 -36 -28 -37 -89 -1 -124 29 -30 50 -31 93 -5 l32 20 0 130 0 130
-155 0 -155 0 0 35 0 35 525 0 524 0 -24 46 c-46 87 -25 171 48 193 29 9 91 6
109 -5z m1726 -106 l89 -123 931 -3 932 -2 0 -35 c0 -31 -3 -35 -25 -35 l-25
0 0 -230 0 -230 -45 0 -45 0 0 115 0 115 -80 0 -80 0 0 -39 c0 -21 -6 -44 -15
-51 -26 -21 -158 120 -140 150 3 6 19 10 36 10 l29 0 0 80 0 80 -85 0 -85 0 0
-236 0 -235 -47 3 -48 3 -3 143 c-1 78 -7 142 -12 142 -18 0 -68 -51 -80 -82
-8 -18 -15 -35 -16 -36 -5 -7 -74 22 -74 31 0 4 7 21 15 36 13 26 13 30 -4 45
-10 9 -35 19 -54 23 -31 5 -40 1 -67 -25 -56 -57 -33 -130 60 -183 33 -19 59
-38 59 -44 1 -5 -8 -21 -18 -34 -23 -30 -50 -25 -112 23 -93 71 -130 164 -94
240 43 91 150 121 250 71 40 -20 58 -25 67 -17 7 5 29 14 48 19 34 9 35 11 35
59 l0 49 -262 3 -263 2 0 -235 0 -235 -45 0 -45 0 0 235 0 235 -65 0 -66 0 17
-32 c11 -22 15 -48 12 -89 -6 -76 -42 -130 -111 -163 l-50 -24 61 -47 c34 -27
62 -51 62 -54 -1 -3 -11 -19 -23 -34 l-23 -28 -65 49 c-35 27 -91 75 -123 106
l-59 57 28 29 28 29 25 -19 c29 -24 51 -25 96 -6 21 9 37 24 43 43 l10 29 -67
-4 c-63 -4 -69 -2 -101 26 -29 26 -33 35 -32 81 l1 51 -69 0 -69 0 0 -235 0
-235 -50 0 -50 0 0 235 0 235 -170 0 -170 0 0 -51 c0 -50 0 -50 22 -35 31 22
106 20 145 -4 43 -26 63 -68 63 -133 0 -57 -30 -117 -83 -165 l-25 -24 -31 23
c-17 12 -31 26 -31 29 0 4 12 17 26 31 56 52 69 117 33 163 -28 35 -54 33 -95
-8 l-34 -34 0 -131 0 -131 -45 0 -45 0 0 60 c0 57 -1 60 -19 50 -11 -5 -41
-10 -68 -10 -92 0 -153 63 -153 158 0 90 37 127 143 147 33 7 38 5 47 -20 15
-39 13 -42 -26 -48 -54 -9 -74 -32 -74 -84 0 -76 65 -109 124 -62 26 20 26 22
26 145 l0 124 -155 0 -155 0 0 40 0 40 383 0 382 1 -115 109 -115 109 35 15
c19 8 38 15 42 16 4 0 47 -55 96 -122z m-117 -40 c114 -92 97 -101 -52 -27
l-108 53 21 28 c11 17 26 27 34 24 7 -3 55 -38 105 -78z m-3241 -203 l0 -55
-55 0 -55 0 0 48 c0 27 3 52 7 55 3 4 28 7 55 7 l48 0 0 -55z m0 -295 l0 -50
-55 0 -55 0 0 50 0 50 55 0 55 0 0 -50z m5277 -242 c74 -75 81 -85 68 -102 -9
-11 -19 -15 -27 -10 -36 22 -188 137 -188 142 0 11 43 52 54 52 7 0 48 -37 93
-82z m-3135 42 c69 -20 91 -94 42 -143 -58 -59 -192 -57 -325 4 l-68 32 20 28
19 28 63 -30 c124 -58 227 -60 227 -5 0 31 -31 42 -71 26 -26 -11 -32 -10 -44
6 -13 17 -19 34 -12 34 1 0 20 7 42 15 49 17 60 18 107 5z"/>
<path d="M2958 784 c13 -41 14 -52 1 -88 -12 -36 -53 -76 -91 -88 -16 -6 7
-45 34 -59 37 -20 96 -13 134 16 l34 26 0 120 0 119 -64 0 -63 0 15 -46z"/>
<path d="M5550 755 l0 -75 75 0 75 0 0 75 0 75 -75 0 -75 0 0 -75z"/>
<path d="M7936 821 c-44 -49 17 -107 81 -77 37 18 41 34 16 65 -27 31 -74 37
-97 12z"/>
<path d="M9210 755 l0 -75 80 0 80 0 0 75 0 75 -80 0 -80 0 0 -75z"/>
</g>
</svg>
