<svg width="175" height="28" viewBox="0 0 175 28" fill="none" xmlns="http://www.w3.org/2000/svg">
<g clip-path="url(#clip0_862_933)">
<path d="M64.0202 7.21411V21.1033H62.3403L54.8477 12.2701V21.1033H52.2959V7.21411H53.844L61.4698 16.1221V7.21411H64.0202Z" fill="white"/>
<path d="M66.5509 8.1415C66.5481 7.93456 66.5875 7.72921 66.6666 7.53781C66.7457 7.34642 66.8629 7.17295 67.0111 7.02787C67.1593 6.88278 67.3355 6.76909 67.5291 6.69364C67.7227 6.61819 67.9296 6.58254 68.1373 6.58885C68.5479 6.58885 68.9417 6.75124 69.232 7.0403C69.5223 7.32936 69.6854 7.72141 69.6854 8.13021C69.6854 8.539 69.5223 8.93105 69.232 9.22012C68.9417 9.50918 68.5479 9.67158 68.1373 9.67158C67.2498 9.67722 66.5509 9.03781 66.5509 8.1415ZM66.8713 21.109V10.9038H69.3452V21.109H66.8713Z" fill="white"/>
<path d="M88.2201 14.9577V21.1034H85.7477V15.4094C85.7477 13.7156 84.8602 12.8687 83.6212 12.8687C82.2432 12.8687 81.2607 13.8836 81.2607 15.4814V21.1006H78.8067V15.4278C78.8067 13.8116 77.939 12.8715 76.6362 12.8715C75.2965 12.8715 74.2573 13.8483 74.2573 15.5026V21.1034H71.8047V10.8983H74.2148V12.3648C74.8003 11.2935 75.9883 10.616 77.3337 10.616C78.5983 10.6357 79.8246 11.2173 80.3916 12.4396C81.1274 11.2935 82.5182 10.616 84.0776 10.616C86.4268 10.616 88.2201 12.1757 88.2201 14.9577Z" fill="white"/>
<path d="M101.416 16.0106C101.416 19.0355 99.226 21.3475 96.3013 21.3475C94.8099 21.3475 93.7495 20.6516 93.0165 19.7497V21.1033H90.6064V6.82031H93.0605V12.2137C93.7962 11.3301 94.8524 10.654 96.3212 10.654C99.226 10.654 101.416 12.9843 101.416 16.0106ZM98.9056 15.9908C98.9056 14.297 97.736 12.9095 95.9426 12.9095C94.1493 12.9095 92.9655 14.321 92.9655 15.9908C92.9655 17.7016 94.1351 19.0962 95.9426 19.0962C97.7502 19.0962 98.9056 17.7016 98.9056 15.9908Z" fill="white"/>
<path d="M103.361 21.1033V6.82031H105.815V21.1033H103.361Z" fill="white"/>
<path d="M118.104 16.8746H110.288C110.59 18.1901 111.554 19.2233 113.423 19.2233C114.626 19.1997 115.798 18.8349 116.801 18.1718L117.782 19.9192C116.48 20.8378 114.923 21.331 113.328 21.3307C109.477 21.3307 107.779 18.6997 107.779 15.9924C107.779 12.9478 109.905 10.6555 113.101 10.6555C115.989 10.6555 118.179 12.554 118.179 15.7863C118.175 16.1502 118.15 16.5136 118.104 16.8746ZM110.288 15.0142H115.763C115.555 13.5858 114.499 12.7022 113.101 12.7022C111.666 12.7022 110.609 13.6041 110.288 15.0142Z" fill="white"/>
<path d="M131.053 17.0622C131.053 19.2048 129.468 21.1033 126.658 21.1033H120.447V7.21411H126.375C129.017 7.21411 130.32 8.98131 130.32 10.6723C130.32 11.8947 129.583 13.0789 128.413 13.4953C130.204 13.9611 131.053 15.4658 131.053 17.0622ZM122.993 9.48804V12.702H125.861C127.146 12.702 127.731 11.8551 127.731 11.0492C127.731 10.2432 127.108 9.48804 125.956 9.48804H122.993ZM128.392 16.8744C128.392 15.8779 127.693 14.8828 126.163 14.8828H122.993V18.811H126.163C127.655 18.811 128.392 17.8145 128.392 16.8744Z" fill="white"/>
<path d="M132.488 15.9907C132.488 13.0407 134.715 10.6355 137.963 10.6355C141.211 10.6355 143.437 13.0351 143.437 15.9907C143.437 18.9464 141.209 21.3657 137.963 21.3657C134.716 21.3657 132.488 18.9605 132.488 15.9907ZM140.964 15.9907C140.964 14.2969 139.661 12.9094 137.963 12.9094C136.265 12.9094 134.962 14.2998 134.962 15.9907C134.962 17.7198 136.263 19.0961 137.963 19.0961C139.663 19.0961 140.964 17.7198 140.964 15.9907Z" fill="white"/>
<path d="M150.799 21.1034L148.703 17.6452L146.551 21.1034H143.702L147.137 15.8808L144.066 10.8982H146.901L148.77 14.1305L150.755 10.8982H153.549L150.302 15.9542L153.643 21.1034H150.799Z" fill="white"/>
<path d="M154.669 19.9374C154.671 19.7455 154.711 19.5558 154.787 19.3795C154.863 19.2033 154.974 19.0439 155.113 18.9108C155.252 18.7778 155.416 18.6737 155.596 18.6047C155.776 18.5357 155.968 18.5031 156.16 18.509C156.538 18.5207 156.897 18.6784 157.16 18.9485C157.423 19.2187 157.57 19.5802 157.57 19.9565C157.57 20.3327 157.423 20.6942 157.16 20.9644C156.897 21.2346 156.538 21.3922 156.16 21.404C155.965 21.4087 155.77 21.3742 155.588 21.3024C155.407 21.2306 155.241 21.1231 155.102 20.9862C154.963 20.8493 154.853 20.6858 154.778 20.5057C154.704 20.3255 154.667 20.1322 154.669 19.9374Z" fill="white"/>
<path d="M169.638 10.8982V21.1034H167.298V19.8444C166.884 20.3223 166.371 20.7044 165.794 20.9641C165.217 21.2238 164.589 21.3547 163.956 21.3476C160.992 21.3476 158.878 18.9791 158.878 15.9543C158.878 12.8899 161.03 10.6541 163.956 10.6541C165.429 10.6541 166.508 11.3118 167.298 12.1954V10.8982H169.638ZM167.354 15.991C167.354 14.2971 166.127 12.8856 164.333 12.8856C162.54 12.8856 161.332 14.2971 161.332 15.991C161.332 17.6848 162.54 19.1118 164.333 19.1118C166.127 19.1118 167.354 17.7017 167.354 15.991Z" fill="white"/>
<path d="M171.867 8.14146C171.864 7.93464 171.903 7.7294 171.982 7.53811C172.061 7.34681 172.178 7.17341 172.327 7.02835C172.475 6.88329 172.651 6.76956 172.844 6.69402C173.037 6.61848 173.244 6.58269 173.452 6.5888C173.862 6.5888 174.256 6.75119 174.546 7.04025C174.837 7.32932 175 7.72137 175 8.13016C175 8.53896 174.837 8.93101 174.546 9.22007C174.256 9.50913 173.862 9.67153 173.452 9.67153C172.562 9.67718 171.867 9.03776 171.867 8.14146ZM172.187 21.1089V10.9038H174.66V21.1089H172.187Z" fill="white"/>
<path d="M20.4431 3.26878e-05C17.9533 -0.00421394 15.5482 0.899612 13.6821 2.54074H27.2055C25.34 0.897804 22.9337 -0.00626561 20.4431 3.26878e-05Z" fill="#0079FF"/>
<path d="M16.6155 6.99679V5.72643C16.6155 5.5576 16.5481 5.39568 16.4282 5.27629C16.3083 5.15691 16.1457 5.08984 15.9761 5.08984H11.5912C11.1286 5.88572 10.7766 6.74042 10.5449 7.63055H15.9733C16.0572 7.63092 16.1405 7.61483 16.2182 7.58318C16.2959 7.55153 16.3666 7.50494 16.4262 7.44609C16.4858 7.38724 16.5333 7.31727 16.5657 7.24018C16.5982 7.16309 16.6151 7.08039 16.6155 6.99679Z" fill="#4DA1FF"/>
<path d="M19.1675 5.72777V6.99812C19.1675 7.16695 19.2348 7.32887 19.3547 7.44825C19.4747 7.56764 19.6373 7.6347 19.8069 7.6347H30.3474C30.1162 6.74464 29.7647 5.88994 29.3026 5.09399H19.804C19.6354 5.09474 19.474 5.16175 19.3547 5.28044C19.2355 5.39914 19.1682 5.55991 19.1675 5.72777Z" fill="#0079FF"/>
<path d="M24.2838 12.094V10.8236C24.2838 10.6548 24.2164 10.4929 24.0965 10.3735C23.9766 10.2541 23.814 10.187 23.6444 10.187H3.46497C3.30477 10.3282 3.14457 10.4693 2.99288 10.6232C2.36154 11.2519 1.8158 11.9604 1.36963 12.7305H23.6444C23.814 12.7305 23.9766 12.6635 24.0965 12.5441C24.2164 12.4247 24.2838 12.2628 24.2838 12.094Z" fill="#4DA1FF"/>
<path d="M26.8384 10.8236V12.094C26.8384 12.2628 26.9057 12.4247 27.0257 12.5441C27.1456 12.6635 27.3082 12.7305 27.4778 12.7305H39.5282C39.0825 11.9601 38.5367 11.2515 37.9049 10.6232C37.7532 10.4721 37.593 10.3253 37.4328 10.187H27.4778C27.3082 10.187 27.1456 10.2541 27.0257 10.3735C26.9057 10.4929 26.8384 10.6548 26.8384 10.8236Z" fill="#0079FF"/>
<path d="M13.4183 25.4522H3.46045C5.32738 27.0946 7.73434 27.9985 10.2257 27.9929H13.4183C13.5024 27.993 13.5857 27.9767 13.6634 27.9448C13.7412 27.9129 13.8118 27.866 13.8713 27.8069C13.9309 27.7478 13.9781 27.6775 14.0103 27.6002C14.0425 27.5229 14.0591 27.44 14.0591 27.3563V26.0859C14.0584 25.9173 13.9905 25.7559 13.8703 25.6371C13.7502 25.5183 13.5877 25.4518 13.4183 25.4522Z" fill="#4DA1FF"/>
<path d="M16.6152 26.0888V27.3592C16.6152 27.528 16.6826 27.69 16.8025 27.8093C16.9224 27.9287 17.085 27.9958 17.2546 27.9958H30.6787C33.1696 28.0011 35.576 27.0972 37.4426 25.4551H17.2518C17.0832 25.4558 16.9217 25.5228 16.8025 25.6415C16.6833 25.7602 16.616 25.921 16.6152 26.0888Z" fill="#0079FF"/>
<path d="M26.8384 22.2722V21.0018C26.8386 20.9182 26.8222 20.8353 26.7901 20.758C26.758 20.6807 26.7109 20.6104 26.6515 20.5513C26.5921 20.4921 26.5216 20.4452 26.4439 20.4133C26.3663 20.3814 26.283 20.365 26.199 20.3652H0.324707C0.552678 21.2564 0.904343 22.1115 1.36955 22.9059H26.199C26.3681 22.9059 26.5303 22.8393 26.6501 22.7205C26.7699 22.6017 26.8376 22.4405 26.8384 22.2722Z" fill="#4DA1FF"/>
<path d="M29.396 20.999V22.2694C29.396 22.4382 29.4634 22.6001 29.5833 22.7195C29.7032 22.8389 29.8658 22.9059 30.0354 22.9059H39.5339C39.9996 22.1116 40.3517 21.2564 40.5802 20.3652H30.0354C29.9516 20.3651 29.8686 20.3813 29.7911 20.413C29.7137 20.4448 29.6432 20.4914 29.5839 20.5503C29.5245 20.6091 29.4773 20.6791 29.4451 20.756C29.4129 20.833 29.3962 20.9156 29.396 20.999Z" fill="#0079FF"/>
<path d="M6.38813 17.1753V15.9049C6.38813 15.7361 6.32077 15.5742 6.20086 15.4548C6.08095 15.3354 5.91832 15.2683 5.74875 15.2683H0.324661C0.10836 16.098 -0.000743871 16.9518 3.81689e-06 17.809H5.74875C5.91783 17.809 6.08003 17.7423 6.19986 17.6236C6.31968 17.5048 6.38738 17.3436 6.38813 17.1753Z" fill="#4DA1FF"/>
<path d="M8.9458 15.905V17.1754C8.9458 17.3442 9.01316 17.5061 9.13307 17.6255C9.25297 17.7449 9.4156 17.8119 9.58517 17.8119H40.9006C40.9011 16.9548 40.7925 16.1011 40.5774 15.2712H9.58517C9.41609 15.2712 9.2539 15.3379 9.13407 15.4567C9.01425 15.5755 8.94655 15.7367 8.9458 15.905Z" fill="#0079FF"/>
</g>
<defs>
<clipPath id="clip0_862_933">
<rect width="175" height="28" fill="white"/>
</clipPath>
</defs>
</svg>
