<svg width="5846" height="1171" viewBox="0 0 5846 1171" fill="none" xmlns="http://www.w3.org/2000/svg">
<path d="M-9.15527e-05 1129.67H284L284.667 582.2L642.533 876.6C839.333 1038.47 1001.2 1171 1002.27 1171C1003.73 1171 1004 1079.27 1004 607.667V44.3333H720L719.333 587.133L372.667 304.2C182 148.6 20.1332 16.6 13.0666 10.7333L-9.15527e-05 0.199951V1129.67Z" fill="black"/>
<path d="M1181.33 1129.67H1477.33V729.667H1922.67V479L1478 478.333L1477.6 394.6L1477.33 311H1966.67V44.3334H1181.33V1129.67Z" fill="black"/>
<path d="M2010.67 312.333H2304V1129.67H2600V312.333H2886.67V44.3334H2010.67V312.333Z" fill="black"/>
<path d="M3014.67 1129.67H3209.33V749.667H3329.87C3402.67 749.667 3455.87 749.133 3464.13 748.333C3543.87 740.333 3609.47 710.467 3671.6 653.8C3732.93 597.8 3768.13 530.733 3780.27 446.333C3782.67 430.067 3782.53 363.933 3780.13 347C3766.93 252.467 3727.73 183.4 3654 123.933C3604.4 83.9334 3550.93 59.8 3486.53 48.0667L3470 45L3014.67 44.3334V1129.67ZM3461.07 224.733C3527.73 242.2 3572.53 290.067 3586.27 358.333C3589.73 375.8 3589.73 420.2 3586.13 437C3578.67 472.733 3563.87 500.867 3540.13 524.467C3514 550.467 3482.93 566.067 3445.33 571.667C3435.07 573.267 3411.47 573.667 3321.07 573.667H3209.33V220.2L3328.4 220.6L3447.33 221.133L3461.07 224.733Z" fill="black"/>
<path d="M5488 344.333H5386.67V515H5488V1129.67H5674.67V515H5845.33V344.333H5674.67V44.3334H5488V344.333Z" fill="black"/>
<path d="M4231.33 322.467C4229.2 322.733 4220.8 323.667 4212.67 324.467C4147.33 331 4081.87 354.467 4026.67 391.133C4000.27 408.867 3981.47 424.2 3958.67 447C3903.73 501.667 3869.07 562.2 3851.2 634.333C3827.73 729.133 3838.8 838.067 3880.4 921C3923.2 1006.47 4002.13 1080.87 4090 1118.33C4167.6 1151.53 4260 1161.8 4348 1147C4434.53 1132.33 4508.93 1094.33 4573.2 1031.8C4610 995.8 4635.6 960.733 4656.8 917C4674.13 881.133 4685.73 842.733 4692.13 800.333C4694.93 781.8 4695.33 775.133 4695.33 737C4695.2 699.533 4694.8 691.933 4692.27 675C4680.13 597 4652.93 535.4 4605.07 477.4C4592.93 462.733 4562.27 432.067 4547.33 419.667C4483.6 366.733 4414.53 336.733 4329.33 324.867C4314.8 322.867 4241.6 321 4231.33 322.467ZM4292.67 492.333C4354.13 498.2 4402.4 522.2 4445.87 568.6C4463.47 587.267 4474.27 602.867 4485.33 625C4502.93 660.467 4510.67 694.333 4510.67 736.867C4510.67 796.067 4494.67 845.4 4460.8 890.333C4451.47 902.867 4425.33 929.267 4414 937.8C4402.27 946.733 4372.4 964.2 4364.93 966.6C4364.4 966.867 4362 967.8 4359.47 968.867C4353.87 971.133 4334.13 977.133 4328.67 978.2C4326.53 978.6 4322.53 979.267 4320 979.533C4317.47 979.933 4313.2 980.867 4310.67 981.667C4307.73 982.6 4292.13 982.867 4268 982.6C4233.2 982.067 4228.67 981.667 4213.87 978.6C4141.87 963 4086.4 921.133 4053.47 857.533C4040.27 832.2 4032.93 810.467 4027.73 781.667C4024.93 765.533 4025.33 705.933 4028.53 689C4039.07 631.533 4069.07 580.733 4114.67 543C4161.2 504.467 4225.87 486.067 4292.67 492.333Z" fill="black"/>
<path d="M5227.33 329.8C5174.27 332.333 5124.93 348.067 5084.93 375.4C5060.27 392.2 5033.07 422.467 5019.87 447.667L5014 458.867L5012.67 345H4827.33L4826.67 1129.67H5013.2L5013.73 905.4C5014.13 703.933 5014.4 679.933 5016.4 670.6C5026.53 622.067 5043.07 590.067 5072.8 561.533C5079.33 555.267 5089.2 547.133 5094.67 543.4C5117.2 528.2 5147.2 516.333 5176 511C5205.47 505.533 5252.8 506.067 5289.07 512.067L5302.67 514.467V333.933L5299.6 333.133C5287.33 330.067 5254.67 328.6 5227.33 329.8Z" fill="black"/>
</svg>
